<svg width="33" height="32" viewBox="0 0 33 32" fill="none" xmlns="http://www.w3.org/2000/svg">
<path d="M13.5912 2.55326C15.4081 1.19188 17.8648 1.19188 19.6817 2.55326L28.9581 9.50401C30.7789 10.8683 31.548 13.295 30.8484 15.5155L27.3051 26.762C26.6062 28.9802 24.6084 30.4677 22.3696 30.4677H10.9033C8.66451 30.4677 6.66665 28.9802 5.9678 26.762L2.42451 15.5155C1.72494 13.295 2.494 10.8683 4.31479 9.50401L13.5912 2.55326Z" stroke="#9F0AC8"/>
<path d="M3.37516 7.21949C3.74048 4.91297 5.54944 3.104 7.85596 2.73868L20.0554 0.806486C22.3619 0.441169 24.6413 1.6026 25.7015 3.68334L31.309 14.6886C32.3692 16.7693 31.969 19.2961 30.3177 20.9474L21.5839 29.6812C19.9326 31.3325 17.4058 31.7327 15.3251 30.6725L4.31981 25.065C2.23907 24.0049 1.07764 21.7254 1.44296 19.4189L3.37516 7.21949Z" stroke="#1E61C8" stroke-width="1.47962"/>
<path d="M8.48241 3.35799C9.59775 1.28906 11.9252 0.169131 14.2483 0.586556L26.0378 2.70494C28.3607 3.12233 30.1475 4.98116 30.4662 7.30687L32.0862 19.127C32.4049 21.4525 31.1839 23.7195 29.0589 24.7411L18.2706 29.928C16.1452 30.9499 13.6009 30.4923 11.969 28.796L3.68147 20.1815C2.04996 18.4856 1.70101 15.9374 2.81608 13.8689L8.48241 3.35799Z" stroke="#CA2EBB"/>
</svg>
