<svg width="44" height="44" viewBox="0 0 44 44" fill="none" xmlns="http://www.w3.org/2000/svg">
<g clip-path="url(#clip0_2001_3)">
<path d="M7.33325 29.3333L18.3333 16.5L27.4999 25.6667L36.6666 14.6667" stroke="black" stroke-width="2" stroke-linecap="round" stroke-linejoin="round"/>
<path d="M25.6667 25.6667C25.6667 26.1529 25.8599 26.6192 26.2037 26.963C26.5475 27.3069 27.0139 27.5 27.5001 27.5C27.9863 27.5 28.4526 27.3069 28.7964 26.963C29.1403 26.6192 29.3334 26.1529 29.3334 25.6667C29.3334 25.1804 29.1403 24.7141 28.7964 24.3703C28.4526 24.0265 27.9863 23.8333 27.5001 23.8333C27.0139 23.8333 26.5475 24.0265 26.2037 24.3703C25.8599 24.7141 25.6667 25.1804 25.6667 25.6667Z" stroke="black" stroke-width="2" stroke-linecap="round" stroke-linejoin="round"/>
<path d="M16.5 16.5C16.5 16.9862 16.6932 17.4525 17.037 17.7964C17.3808 18.1402 17.8471 18.3333 18.3333 18.3333C18.8196 18.3333 19.2859 18.1402 19.6297 17.7964C19.9735 17.4525 20.1667 16.9862 20.1667 16.5C20.1667 16.0138 19.9735 15.5474 19.6297 15.2036C19.2859 14.8598 18.8196 14.6667 18.3333 14.6667C17.8471 14.6667 17.3808 14.8598 17.037 15.2036C16.6932 15.5474 16.5 16.0138 16.5 16.5Z" stroke="black" stroke-width="2" stroke-linecap="round" stroke-linejoin="round"/>
<path d="M5.5 29.3333C5.5 29.8196 5.69315 30.2859 6.03697 30.6297C6.38079 30.9735 6.8471 31.1667 7.33333 31.1667C7.81956 31.1667 8.28588 30.9735 8.6297 30.6297C8.97351 30.2859 9.16667 29.8196 9.16667 29.3333C9.16667 28.8471 8.97351 28.3808 8.6297 28.037C8.28588 27.6932 7.81956 27.5 7.33333 27.5C6.8471 27.5 6.38079 27.6932 6.03697 28.037C5.69315 28.3808 5.5 28.8471 5.5 29.3333Z" stroke="black" stroke-width="2" stroke-linecap="round" stroke-linejoin="round"/>
<path d="M34.8333 14.6667C34.8333 15.1529 35.0264 15.6192 35.3702 15.963C35.714 16.3069 36.1804 16.5 36.6666 16.5C37.1528 16.5 37.6191 16.3069 37.9629 15.963C38.3068 15.6192 38.4999 15.1529 38.4999 14.6667C38.4999 14.1804 38.3068 13.7141 37.9629 13.3703C37.6191 13.0265 37.1528 12.8333 36.6666 12.8333C36.1804 12.8333 35.714 13.0265 35.3702 13.3703C35.0264 13.7141 34.8333 14.1804 34.8333 14.6667Z" stroke="black" stroke-width="2" stroke-linecap="round" stroke-linejoin="round"/>
</g>
<defs>
<clipPath id="clip0_2001_3">
<rect width="44" height="44" fill="white"/>
</clipPath>
</defs>
</svg>
