<svg width="44" height="44" viewBox="0 0 44 44" fill="none" xmlns="http://www.w3.org/2000/svg">
<g clip-path="url(#clip0_2004_12)">
<path d="M5.5 22H7.33333M22 5.5V7.33333M36.6667 22H38.5M10.2667 10.2667L11.55 11.55M33.7333 10.2667L32.45 11.55" stroke="black" stroke-width="2" stroke-linecap="round" stroke-linejoin="round"/>
<path d="M16.4999 29.3333C14.9608 28.179 13.8239 26.5696 13.2502 24.7332C12.6766 22.8968 12.6953 20.9264 13.3037 19.1013C13.9121 17.2761 15.0793 15.6886 16.6401 14.5636C18.2008 13.4387 20.076 12.8333 21.9999 12.8333C23.9238 12.8333 25.799 13.4387 27.3598 14.5636C28.9205 15.6886 30.0878 17.2761 30.6962 19.1013C31.3046 20.9264 31.3233 22.8968 30.7496 24.7332C30.176 26.5696 29.0391 28.179 27.4999 29.3333C26.7841 30.0419 26.2452 30.909 25.9267 31.8645C25.6082 32.82 25.5191 33.837 25.6666 34.8333C25.6666 35.8058 25.2803 36.7384 24.5926 37.4261C23.905 38.1137 22.9724 38.5 21.9999 38.5C21.0275 38.5 20.0948 38.1137 19.4072 37.4261C18.7196 36.7384 18.3333 35.8058 18.3333 34.8333C18.4808 33.837 18.3917 32.82 18.0732 31.8645C17.7547 30.909 17.2157 30.0419 16.4999 29.3333Z" stroke="black" stroke-width="2" stroke-linecap="round" stroke-linejoin="round"/>
<path d="M17.7834 31.1667H26.2168" stroke="black" stroke-width="2" stroke-linecap="round" stroke-linejoin="round"/>
</g>
<defs>
<clipPath id="clip0_2004_12">
<rect width="44" height="44" fill="white"/>
</clipPath>
</defs>
</svg>
