<svg width="26" height="26" viewBox="0 0 26 26" fill="none" xmlns="http://www.w3.org/2000/svg">
<path fill-rule="evenodd" clip-rule="evenodd" d="M23.6365 1C24.1888 1 24.6365 1.44772 24.6365 2V7.83674C24.6365 8.38902 24.1888 8.83674 23.6365 8.83674L1.63647 8.83673C1.08419 8.83673 0.636475 8.38902 0.636475 7.83673V2C0.636475 1.44772 1.08419 1 1.63648 1H23.6365ZM15.5548 16.9184C16.1071 16.9184 16.5548 16.4707 16.5548 15.9184V10.0816C16.5548 9.52935 16.1071 9.08164 15.5548 9.08164H8.47321L1.63647 9.08163C1.08419 9.08163 0.636475 9.52935 0.636475 10.0816V16.9184V24C0.636475 24.5523 1.08419 25 1.63648 25H7.47321C8.02549 25 8.47321 24.5523 8.47321 24L8.47321 17.9184C8.47321 17.3661 8.92093 16.9184 9.47321 16.9184L15.5548 16.9184ZM23.6365 9.08163C24.1888 9.08163 24.6365 9.52935 24.6365 10.0816V17V24C24.6365 24.5523 24.1888 25 23.6365 25H16.7997L9.63647 25C9.08419 25 8.63647 24.5523 8.63647 24V18C8.63647 17.4477 9.08419 17 9.63647 17H15.7997C16.352 17 16.7997 16.5523 16.7997 16V10.0816C16.7997 9.52935 17.2475 9.08163 17.7997 9.08163H23.6365Z" fill="#2260C8"/>
<path d="M8.47321 9.08164V9.58164V9.08164ZM16.7997 25V25.5V25ZM9.63647 25V24.5V25ZM1.63647 9.08163L1.63647 9.58163L1.63647 9.08163ZM15.5548 16.9184V16.4184V16.9184ZM1.63647 8.83673V9.33673V8.83673ZM8.47321 17.9184H7.97321H8.47321ZM9.47321 16.9184V17.4184V16.9184ZM25.1365 7.83674V2H24.1365V7.83674H25.1365ZM1.63647 9.33673L23.6365 9.33674V8.33674L1.63647 8.33673V9.33673ZM0.136475 2V7.83673H1.13647V2H0.136475ZM23.6365 0.5H1.63648V1.5H23.6365V0.5ZM16.0548 10.0816V15.9184H17.0548V10.0816H16.0548ZM8.47321 9.58164H15.5548V8.58164H8.47321V9.58164ZM1.63647 9.58163L8.47321 9.58164V8.58164L1.63648 8.58163L1.63647 9.58163ZM1.13647 16.9184V10.0816H0.136475V16.9184H1.13647ZM1.13647 24V16.9184H0.136475V24H1.13647ZM7.47321 24.5H1.63648V25.5H7.47321V24.5ZM7.97321 17.9184L7.97321 24H8.97321V17.9184L7.97321 17.9184ZM15.5548 16.4184L9.47321 16.4184V17.4184H15.5548V16.4184ZM25.1365 17V10.0816H24.1365V17H25.1365ZM25.1365 24V17H24.1365V24H25.1365ZM16.7997 25.5H23.6365V24.5H16.7997V25.5ZM9.63647 25.5L16.7997 25.5V24.5L9.63647 24.5V25.5ZM8.13647 18V24H9.13647V18H8.13647ZM15.7997 16.5H9.63647V17.5H15.7997V16.5ZM16.2997 10.0816V16H17.2997V10.0816H16.2997ZM23.6365 8.58163H17.7997V9.58163H23.6365V8.58163ZM17.2997 10.0816C17.2997 9.80549 17.5236 9.58163 17.7997 9.58163V8.58163C16.9713 8.58163 16.2997 9.25321 16.2997 10.0816H17.2997ZM15.7997 17.5C16.6282 17.5 17.2997 16.8284 17.2997 16H16.2997C16.2997 16.2761 16.0759 16.5 15.7997 16.5V17.5ZM9.13647 18C9.13647 17.7239 9.36033 17.5 9.63647 17.5V16.5C8.80805 16.5 8.13647 17.1716 8.13647 18H9.13647ZM9.63647 24.5C9.36033 24.5 9.13647 24.2761 9.13647 24H8.13647C8.13647 24.8284 8.80805 25.5 9.63647 25.5V24.5ZM24.1365 24C24.1365 24.2761 23.9126 24.5 23.6365 24.5V25.5C24.4649 25.5 25.1365 24.8284 25.1365 24H24.1365ZM7.47321 25.5C8.30164 25.5 8.97321 24.8284 8.97321 24H7.97321C7.97321 24.2761 7.74935 24.5 7.47321 24.5V25.5ZM0.136475 24C0.136475 24.8284 0.808048 25.5 1.63648 25.5V24.5C1.36033 24.5 1.13647 24.2761 1.13647 24H0.136475ZM1.63648 8.58163C0.808047 8.58163 0.136475 9.25321 0.136475 10.0816H1.13647C1.13647 9.80549 1.36033 9.58163 1.63647 9.58163L1.63648 8.58163ZM16.0548 15.9184C16.0548 16.1945 15.831 16.4184 15.5548 16.4184V17.4184C16.3833 17.4184 17.0548 16.7468 17.0548 15.9184H16.0548ZM17.0548 10.0816C17.0548 9.25321 16.3833 8.58164 15.5548 8.58164V9.58164C15.831 9.58164 16.0548 9.80549 16.0548 10.0816H17.0548ZM1.13647 2C1.13647 1.72386 1.36033 1.5 1.63648 1.5V0.5C0.808048 0.5 0.136475 1.17157 0.136475 2H1.13647ZM25.1365 10.0816C25.1365 9.25321 24.4649 8.58163 23.6365 8.58163V9.58163C23.9126 9.58163 24.1365 9.80549 24.1365 10.0816H25.1365ZM1.63647 8.33673C1.36033 8.33673 1.13647 8.11288 1.13647 7.83673H0.136475C0.136475 8.66516 0.808047 9.33673 1.63647 9.33673V8.33673ZM25.1365 2C25.1365 1.17157 24.4649 0.5 23.6365 0.5V1.5C23.9126 1.5 24.1365 1.72386 24.1365 2H25.1365ZM8.97321 17.9184C8.97321 17.6422 9.19707 17.4184 9.47321 17.4184V16.4184C8.64478 16.4184 7.97321 17.0899 7.97321 17.9184L8.97321 17.9184ZM24.1365 7.83674C24.1365 8.11288 23.9126 8.33674 23.6365 8.33674V9.33674C24.4649 9.33674 25.1365 8.66516 25.1365 7.83674H24.1365Z" fill="#F6F6F6"/>
</svg>
